# xmcd
#
# Track frame offsets: 
#        150
#        8126
#        32382
#        48302
#        71963
#        89037
#        105893
#        132376
#        151621
#        166534
#        187586
#        210337
#        235041
#        256209
#
# Disc length: 3488 seconds
#
# Revision: 8
# Processed by: cddbd v1.5.2PL0 Copyright (c) Steve Scherf et al.
# Submitted via: ExactAudioCopy v1.0b3
#
DISCID=9c0d9e0e
DTITLE=???? - Thank you? Love
DYEAR=2011
DGENRE=J-Pop
TTITLE0=1.*Prologue*?Sunrise?
TTITLE1=2.Esperanza
TTITLE2=3.Clap Clap!!
TTITLE3=4.Together
TTITLE4=5.Distance
TTITLE5=6.I'll be there
TTITLE6=7.Flower
TTITLE7=8.Every Boy Every Girl
TTITLE8=9.Where are you?
TTITLE9=10.if
TTITLE10=11.Alright
TTITLE11=12.???
TTITLE12=13.Wishing
TTITLE13=14.*Epilogue*?Thank you, Love?
EXTD=YEAR: 2011
EXTT0=
EXTT1=
EXTT2=
EXTT3=
EXTT4=
EXTT5=
EXTT6=
EXTT7=
EXTT8=
EXTT9=
EXTT10=
EXTT11=
EXTT12=
EXTT13=
PLAYORDER=
